<svg xmlns="http://www.w3.org/2000/svg" width="260" height="260"><defs><path d="M-1392.293 588.91c20.392-52.843 59.314-13.04 80 7.647 56.47 44.902 81.177 12.157 88.824-17.06M171.766 446.48c26.078 62.157 8.627 147.843-7.06 180.588m-1397.417 480.545c235.148 210.107 618.09 100.382 733.445-37.393M429 309.43c131.28 148.82 63.22 385.195 5.82 488.727m-1723.9 49.463c-121.764-159.197-166.177-364.755-37.583-555.374m-313.598-103.19c197.792-135.773 367.327-135.88 585.98 0m-338.013 399.854c20.392-52.843 59.314-13.04 80 7.647 56.47 44.902 81.177 12.157 88.824-17.06m171.766 446.48c26.078 62.158 8.627 147.844-7.06 180.59M-2456.18 1687.11c235.147 210.108 618.088 100.383 733.444-37.392m429 309.43c131.28 148.82 63.22 385.195 5.82 488.727m-1723.9 49.463c-121.764-159.197-166.177-364.755-37.583-555.374m-313.597-103.19c197.793-135.773 367.328-135.88 585.98 0" stroke="#000" fill="none"/></defs><g><path d="M158.547 259.564c-11.513-1.084-22.558-7.348-23.995-19.694-10.143-29.307-4.7-60.874 2.285-90.216 5.928-32.746.47-65.86-2.34-98.578-.317-13.305.03-26.764 1.185-39.942 5.97-12.21 23.115-10.457 32.86-3.986 13.053 5.317 22.32 15.162 28.367 27.858 9.9 13.82 12.41 30.92 18.163 46.445 9.554 12.904 11.25 28.71 12.245 44.238 1.744 15.857 5.89 31.37 4.525 47.45-1.076 16.197.216 33.437-6.547 48.515-10.102 17.404-27.464 30.418-46.234 37.242-6.69 1.578-13.713 1.14-20.515.67z"/><path d="M77.82 255.414c-8.607-9.355-20.205-15.158-29.393-23.592-6.62-9.56-10.974-20.537-15.45-31.227-4.848-11.644-5.394-24.324-4.91-36.75.186-16.318-1.897-33.48 4.512-48.907 3.955-12.443 5.223-26.016 12.916-36.95C49.528 68 53.654 58.66 59.114 49.332c5.553-8.004 10.202-16.666 17.778-23.102 8.785-7.805 16.79-16.714 27.338-22.338 9.48-9.843 24.373.664 21.192 12.948 2.082 19.414 7.764 38.597 5.692 58.295-1.12 13.108-6.13 25.408-9.192 38.104-6.428 9.013-3.32 20.72-3.483 30.994 1.828 18.55 4.607 37.14 2.702 55.815-1.03 14.132-1.542 29.335-9.554 41.52-3.55 9.69-10.85 20.04-22.53 17.562-3.987-.073-8.21-.933-11.237-3.713z"/></g><g stroke="#000"><path d="M185.677 130c0 30.747-24.93 55.677-55.677 55.677S74.323 160.747 74.323 130 99.253 74.323 130 74.323s55.677 24.93 55.677 55.677z" fill="#f7931a"/><path d="M129.868 94.195l-2.595 9.688-13.65-3.655-1.89 7.044 6.607 1.772-8.778 32.767-6.606-1.77-1.913 7.136 13.65 3.655-2.643 9.864 6.606 1.77 2.643-9.86 6.343 1.697-2.644 9.864 6.694 1.79 2.454-9.915c6.022.953 13.338.17 17.11-5.244 4.455-6.315 1.15-16.04-5.972-18.762 4.323.71 7.764-3.218 9.346-6.806 2.24-4.643 1.237-10.885-3.228-13.844-1.402-1.446-5.175-1.174-4.182-3.394l2.288-8.534-6.694-1.79-2.594 9.687-6.344-1.7 2.594-9.687-6.605-1.772zM-13.04-2.104c2.965.77 6.83 2.367 6.81 5.98-.086 2.926-1.834 6.387-5.19 6.294-2.803.098-5.607-.443-7.895-1.602l3.04-11.347c1.233.22 2.02.356 3.233.676zm2.9 24.12c.58 3.574-.453 5.81-3.535 7.63-3.082 1.82-7.756.73-11.62-.26l3.957-14.768c4.118 1.086 10.442 3.816 11.196 7.395z" fill="#fff"/><path d="M168.648 140.36c-5.72 21.347-27.66 34.013-49.008 28.294-21.347-5.72-34.013-27.66-28.294-49.008 5.72-21.347 27.66-34.013 49.008-28.294 21.347 5.72 34.013 27.66 28.294 49.008z" fill="none"/><path d="M184.6 130c0 30.158-24.447 54.605-54.604 54.605-30.158 0-54.605-24.448-54.605-54.605 0-30.158 24.45-54.605 54.606-54.605 30.158 0 54.605 24.448 54.605 54.605z" opacity=".451" fill="none"/></g></svg>