<?xml version="1.0" encoding="UTF-8" standalone="no"?>
<svg
   xmlns:dc="http://purl.org/dc/elements/1.1/"
   xmlns:cc="http://creativecommons.org/ns#"
   xmlns:rdf="http://www.w3.org/1999/02/22-rdf-syntax-ns#"
   xmlns:svg="http://www.w3.org/2000/svg"
   xmlns="http://www.w3.org/2000/svg"
   xmlns:sodipodi="http://sodipodi.sourceforge.net/DTD/sodipodi-0.dtd"
   xmlns:inkscape="http://www.inkscape.org/namespaces/inkscape"
   width="260"
   height="260"
   id="svg2"
   version="1.1"
   inkscape:version="0.48.2 r9819"
   sodipodi:docname="favicon.svg"
   inkscape:export-filename="/Users/smithd98/apps/bitcoinbulls.net/images/favicon.png"
   inkscape:export-xdpi="90"
   inkscape:export-ydpi="90">
  <metadata
     id="metadata84">
    <rdf:RDF>
      <cc:Work
         rdf:about="">
        <dc:format>image/svg+xml</dc:format>
        <dc:type
           rdf:resource="http://purl.org/dc/dcmitype/StillImage" />
        <dc:title></dc:title>
      </cc:Work>
    </rdf:RDF>
  </metadata>
  <sodipodi:namedview
     pagecolor="#ffffff"
     bordercolor="#666666"
     borderopacity="1"
     objecttolerance="10"
     gridtolerance="10"
     guidetolerance="10"
     inkscape:pageopacity="0"
     inkscape:pageshadow="2"
     inkscape:window-width="1142"
     inkscape:window-height="774"
     id="namedview82"
     showgrid="false"
     inkscape:zoom="0.64183539"
     inkscape:cx="-156.45809"
     inkscape:cy="304.09101"
     inkscape:window-x="165"
     inkscape:window-y="59"
     inkscape:window-maximized="0"
     inkscape:current-layer="svg2" />
  <defs
     id="defs4">
    <path
       d="M-1392.293 588.91c20.392-52.843 59.314-13.039 80 7.647 56.471 44.902 81.177 12.157 88.824-17.059m1395.234-133.018c26.078 62.157 8.627 147.843-7.059 180.588m-1397.418 480.545c235.148 210.107 618.089 100.382 733.445-37.393m928.267-760.789c131.281 148.819 63.221 385.194 5.819 488.726m-1723.9 49.463c-121.763-159.197-166.176-364.755-37.582-555.374m-313.598-103.189c197.793-135.774 367.328-135.88 585.98 0M-1392.293 588.91c20.392-52.843 59.314-13.039 80 7.647 56.471 44.902 81.177 12.157 88.824-17.059m171.765 446.48c26.078 62.157 8.627 147.843-7.059 180.588m-1397.418 480.545c235.148 210.107 618.089 100.382 733.445-37.393m429 309.431c131.281 148.819 63.221 385.194 5.819 488.726m-1723.9 49.463c-121.763-159.197-166.176-364.755-37.582-555.374m-313.598-103.189c197.793-135.774 367.328-135.88 585.98 0"
       stroke="#000"
       fill="none"
       id="path6" />
  </defs>
  <g
     id="g3084"
     transform="matrix(1.0402569,0,0,1.0402569,-80.213286,361.32905)">
    <path
       inkscape:connector-curvature="0"
       id="path3076"
       d="m 229.52053,-97.826391 c -11.06773,-1.042694 -21.68512,-7.063909 -23.0666,-18.932739 -9.75061,-28.17275 -4.51667,-58.51802 2.19651,-86.72409 5.69839,-31.47904 0.45243,-63.31087 -2.24799,-94.76382 -0.306,-12.78931 0.0275,-25.7279 1.13813,-38.39579 5.74009,-11.73815 22.22047,-10.05191 31.58688,-3.83168 12.54947,5.11161 21.45809,14.57526 27.27078,26.78004 9.51748,13.28366 11.93027,29.72383 17.46121,44.64717 9.18393,12.40432 10.81515,27.59737 11.77063,42.52523 1.67653,15.24368 5.66177,30.15527 4.34947,45.61473 -1.03364,15.5696 0.20779,32.14185 -6.29314,46.63702 -9.71093,16.72962 -26.40156,29.24071 -44.44463,35.800377 -6.43136,1.516572 -13.18288,1.095148 -19.72125,0.643552 z"
       style="fill:#000000;fill-opacity:1;stroke:none" />
    <path
       inkscape:connector-curvature="0"
       id="path3078"
       d="m 151.91893,-101.81609 c -8.27563,-8.99324 -19.42407,-14.57203 -28.25722,-22.67883 -6.36224,-9.18952 -10.54888,-19.74274 -14.85241,-30.01892 -4.6599,-11.19299 -5.1848,-23.38298 -4.71902,-35.32804 0.17827,-15.68577 -1.82435,-32.18353 4.33695,-47.01416 3.80288,-11.96168 5.0222,-25.009 12.41704,-35.51929 3.87629,-9.60452 7.84222,-18.58097 13.09151,-27.54824 5.33817,-7.69599 9.80718,-16.0223 17.08945,-22.20922 8.44573,-7.5033 16.14159,-16.06725 26.28017,-21.47385 9.11302,-9.46198 23.43016,0.63877 20.37221,12.44669 2.00147,18.66298 7.46324,37.10387 5.472,56.03905 -1.0782,12.60128 -5.89276,24.42507 -8.83654,36.62959 -6.17922,8.66408 -3.19289,19.91727 -3.34821,29.79478 1.75783,17.83097 4.42949,35.70196 2.59864,53.65421 -0.99122,13.58454 -1.48292,28.19933 -9.1843,39.91335 -3.41163,9.314 -10.42948,19.264654 -21.65754,16.882395 -3.8334,-0.07082 -7.89293,-0.897671 -10.80273,-3.569515 z"
       style="fill:#000000;fill-opacity:1;stroke:none" />
  </g>
  <g
     id="g70"
     transform="matrix(1.0402569,0,0,1.0402569,71.889167,56.257226)"
     style="stroke:#000000">
    <path
       d="m 109.384,70.889 c 0,29.557 -23.965,53.522 -53.522,53.522 -29.557,0 -53.522,-23.965 -53.522,-53.522 0,-29.557 23.965,-53.522 53.522,-53.522 29.557,0 53.522,23.965 53.522,53.522 z"
       id="path72"
       inkscape:connector-curvature="0"
       style="fill:#f7931a" />
    <path
       d="m 55.735,36.47 -2.494,9.313 -13.122,-3.514 -1.816,6.772 6.35,1.703 -8.438,31.499 -6.35,-1.703 -1.839,6.86 13.122,3.514 -2.541,9.481 6.35,1.703 2.541,-9.481 6.098,1.633 -2.541,9.481 6.435,1.722 2.359,-9.533 c 5.789,0.917 12.822,0.164 16.449,-5.04 4.282,-6.07 1.104,-15.42 -5.742,-18.036 4.156,0.683 7.464,-3.093 8.985,-6.542 2.153,-4.464 1.189,-10.464 -3.103,-13.309 -1.348,-1.39 -4.975,-1.128 -4.02,-3.262 l 2.199,-8.204 -6.435,-1.722 -2.494,9.313 -6.098,-1.633 2.494,-9.313 -6.35,-1.703 z m 5.152,18.41 c 2.85,0.739 6.566,2.274 6.547,5.747 -0.084,2.813 -1.764,6.14 -4.989,6.051 -2.696,0.094 -5.391,-0.426 -7.591,-1.54 L 57.779,54.23 c 1.184,0.211 1.942,0.342 3.107,0.65 z m 2.986,23.899 c 0.557,3.435 -0.435,5.583 -3.397,7.333 -2.962,1.75 -7.455,0.702 -11.171,-0.248 L 53.11,71.666 c 3.959,1.044 10.038,3.669 10.763,7.109 z"
       id="path74"
       inkscape:connector-curvature="0"
       style="fill:#ffffff" />
    <path
       d="M 93.014,80.848 C 87.515,101.369 66.424,113.545 45.903,108.047 25.382,102.548 13.206,81.457 18.704,60.936 24.203,40.415 45.294,28.239 65.815,33.737 86.336,39.236 98.512,60.327 93.014,80.848 z"
       id="path76"
       inkscape:connector-curvature="0"
       style="fill:none" />
    <path
       d="m 108.35,70.889 c 0,28.991 -23.502,52.492 -52.492,52.492 -28.991,0 -52.492,-23.502 -52.492,-52.492 0,-28.991 23.502,-52.492 52.492,-52.492 28.991,0 52.492,23.502 52.492,52.492 z"
       id="path78"
       inkscape:connector-curvature="0"
       style="opacity:0.4510002;fill:none" />
  </g>
</svg>
