<svg xmlns="http://www.w3.org/2000/svg" width="200" height="200"><defs><path d="M-1392.293 588.91c20.392-52.843 59.314-13.04 80 7.647 56.47 44.902 81.177 12.157 88.824-17.06M171.768 446.48c26.078 62.157 8.627 147.843-7.06 180.588m-1397.417 480.545c235.147 210.107 618.09 100.382 733.444-37.393M429 309.43c131.28 148.82 63.22 385.195 5.82 488.727m-1723.9 49.463c-121.764-159.197-166.177-364.755-37.583-555.374m-313.598-103.19c197.79-135.773 367.325-135.88 585.98 0" stroke="#000" fill="none"/></defs><text y="939.723" x="38.64" style="line-height:125%" font-size="28.509" letter-spacing="0" word-spacing="0" font-family="Sans" transform="matrix(1.299 0 0 1.485 0 -1348.735)"><tspan style="-inkscape-font-specification:Copperplate" y="939.723" x="38.64" font-size="57.018" font-family="Copperplate">?</tspan></text><path d="M39.577 1040.978c0-.156 1.9-5.85 4.224-12.65 2.326-6.803 4.33-12.85 4.458-13.438.127-.588.46-1.24.738-1.45.28-.21 1.028-1.627 1.664-3.15l1.156-2.77-1.664 1.078c-.914.593-2.517 1.288-3.56 1.545-2.163.532-4.156-1.397-7.493-7.253-1.04-1.828-3.125-5.204-4.628-7.502-1.502-2.3-2.732-4.98-2.732-5.956 0-1.032-.724-2.347-1.73-3.137-.95-.75-3.545-3.952-5.763-7.118l-4.034-5.757 1.666-1.775c.914-.976 1.343-1.697.95-1.603-.392.095-1.23-.057-1.863-.336-1.08-.478-13.74 1.355-15.08 2.182-.338.21-.792-.293-1.007-1.116-.233-.892-.97-1.497-1.817-1.497-1.074 0-1.334-.35-1.053-1.425.204-.784.08-1.605-.276-1.825-1.01-.625.666-3.165 2.09-3.165.692 0 1.563-.296 1.935-.657.37-.36 4.523-.83 9.23-1.04 4.7-.21 9.03-.416 9.62-.458.59-.042 2.03.125 3.206.37 1.176.245 2.838.587 3.694.76.857.173 1.76.955 2.01 1.74.25.782.91 1.423 1.472 1.423s1.02.34 1.02.755.37.526.824.246c.483-.3.63-.2.356.244-.257.415.247 2.092 1.12 3.727.87 1.635 1.65 2.708 1.73 2.385.078-.323.278-3.924.444-8.002.468-7.362 4.76-13.587 6.133-13.61 2.904 0 15.766-2.077 18.51-4.118 2.77-2.063-2.74-5.347-.61-13.345 2.53-9.5 9.485-20.325 14.624-22.764 1.964-.932 3.903-1.192 7.42-.993 4.255.24 5.105.553 8.03 2.95 1.8 1.473 3.594 3.55 3.988 4.616 1.77 4.774 2.97 13.423 3.174 22.853l-3.93 9.04 6.112 2.615c4.4 1.882 6.483 10.265 5.473 15.59-.38 2.012-.462 4.025-.18 4.473.28.45.616 1.62.743 2.6.365 2.816 1.602 7.127 2.046 7.127.222 0 .282-1.28.133-2.846-.15-1.564-.103-2.927.103-3.03.77-.376 4.295-5.462 4.295-6.193 0-.418.375-.76.833-.76.457 0 .652-.18.432-.4-.385-.385 1.412-2.425 3.99-4.53.68-.557 3.81-1.554 6.95-2.217 4.956-1.045 5.85-1.07 6.733-.185.56.56 1.02 1.317 1.02 1.68 0 .365 1.2.665 2.67.667 1.47.002 3.796.294 5.168.648 1.37.354 3.665.842 5.097 1.085 5.013.85 3.89 3.798-2.58 6.77-3.558 1.633-5.383 1.683-12.318.336-1.972-.38-2.317-.242-2.317.93 0 .76-1.604 3.708-3.564 6.55-1.96 2.848-3.565 5.93-3.565 6.86 0 .925-.343 1.893-.76 2.152-.42.26-.59.916-.383 1.46.21.544.05.91-.35.82-.4-.093-1.144 1.01-1.653 2.45-1.08 3.057-4.046 6.955-8.23 10.817-2.417 2.23-3.384 2.686-5.145 2.427-2.123-.31-2.16-.264-1.818 2.243.283 2.06 4.515 13.86 7.565 21.09.33.785.68 1.747.778 2.14.1.39.783 2.247 1.523 4.124.74 1.877 1.344 3.72 1.344 4.098 0 .432-14.547.686-39.2.686-21.56 0-39.2-.128-39.2-.283z" fill="#e1e1e1" stroke="#000" stroke-width="2.851" transform="matrix(1.299 0 0 1.485 0 -1348.735)"/><g stroke="#000"><path d="M140.18 123.015c0 25.265-17.917 45.745-40.02 45.745s-40.02-20.48-40.02-45.745S78.057 77.27 100.16 77.27s40.02 20.48 40.02 45.745z" fill="#f7931a"/><path d="M100.068 93.597l-1.867 7.96-9.81-3.004-1.358 5.79 4.75 1.453-6.31 26.92-4.75-1.453-1.374 5.862 9.814 3.005-1.9 8.105 4.747 1.454 1.9-8.108 4.557 1.396-1.9 8.104 4.81 1.474 1.765-8.15c4.33.783 9.59.142 12.3-4.306 3.202-5.19.827-13.18-4.292-15.414 3.107.584 5.583-2.643 6.717-5.59 1.61-3.815.89-8.944-2.32-11.377-1.007-1.19-3.722-.963-3.005-2.79l1.644-7.01-4.81-1.475-1.868 7.96-4.558-1.395 1.867-7.96-4.748-1.454zm3.853 15.735c2.13.63 4.91 1.945 4.9 4.912-.065 2.405-1.32 5.246-3.73 5.17-2.017.08-4.033-.366-5.674-1.317l2.185-9.322c.887.18 1.453.29 2.324.554zm2.234 20.425c.415 2.936-.327 4.773-2.54 6.27-2.213 1.494-5.573.598-8.35-.21l2.844-12.136c2.96.895 7.506 3.137 8.048 6.08z" fill="#fff"/><path d="M127.943 131.525c-4.11 17.54-19.882 27.946-35.226 23.247-15.344-4.7-24.45-22.726-20.338-40.265 4.11-17.54 19.88-27.946 35.223-23.247 15.344 4.7 24.45 22.726 20.338 40.265z" fill="none"/><path d="M139.41 123.015c0 24.777-17.573 44.863-39.25 44.863s-39.247-20.086-39.247-44.863 17.572-44.863 39.248-44.863 39.25 20.086 39.25 44.863z" opacity=".451" fill="none"/></g><text transform="matrix(1.255 -.385 .336 1.435 0 -1348.735)" style="line-height:125%" x="-233.702" y="918.351" font-size="28.509" letter-spacing="0" word-spacing="0" font-family="Sans"><tspan x="-233.702" y="918.351" style="-inkscape-font-specification:Copperplate" font-size="57.018" font-family="Copperplate">?</tspan></text><text transform="matrix(1.255 .385 -.336 1.435 0 -1348.735)" style="line-height:125%" x="349.148" y="889.227" font-size="28.509" letter-spacing="0" word-spacing="0" font-family="Sans"><tspan x="349.148" y="889.227" style="-inkscape-font-specification:Copperplate" font-size="57.018" font-family="Copperplate">?</tspan></text></svg>